PathFileType	4	(X/Y/Z)	 s10c0302.trc
DataRate	CameraRate	NumFrames	NumMarkers	Units	OrigDataRate	OrigDataStartFrame	OrigNumFrames
200	200	5	50	mm	200	1751	2000
Frame#	Time	racr			lacr			c7			jug			rlel			rdr			llel			ldr			s2			lic			ric			lasi			rasi			rpsi			lpsi			rgt			lgt			rth1			rth2			rth3			rth4			rlfc			rmfc			rsh1			rsh2			rsh3			rsh4			rlmal			rmmal			rcal			rtoe			rmt5			lth1			lth2			lth4			lth3			llfc			lmfc			llmal			lmmal			lcal			lmt5			lsh1			lsh2			lsh3			lsh4			ltoe			SBIKE			LBIKE			RBIKE			
		X1	Y1	Z1	X2	Y2	Z2	X3	Y3	Z3	X4	Y4	Z4	X5	Y5	Z5	X6	Y6	Z6	X7	Y7	Z7	X8	Y8	Z8	X9	Y9	Z9	X10	Y10	Z10	X11	Y11	Z11	X12	Y12	Z12	X13	Y13	Z13	X14	Y14	Z14	X15	Y15	Z15	X16	Y16	Z16	X17	Y17	Z17	X18	Y18	Z18	X19	Y19	Z19	X20	Y20	Z20	X21	Y21	Z21	X22	Y22	Z22	X23	Y23	Z23	X24	Y24	Z24	X25	Y25	Z25	X26	Y26	Z26	X27	Y27	Z27	X28	Y28	Z28	X29	Y29	Z29	X30	Y30	Z30	X31	Y31	Z31	X32	Y32	Z32	X33	Y33	Z33	X34	Y34	Z34	X35	Y35	Z35	X36	Y36	Z36	X37	Y37	Z37	X38	Y38	Z38	X39	Y39	Z39	X40	Y40	Z40	X41	Y41	Z41	X42	Y42	Z42	X43	Y43	Z43	X44	Y44	Z44	X45	Y45	Z45	X46	Y46	Z46	X47	Y47	Z47	X48	Y48	Z48	X49	Y49	Z49	X50	Y50	Z50	
1751	8.7550	538.525328	1334.002584	-113.235799	584.881539	1248.101534	-422.723645	550.493428	1328.018170	-271.792573	541.597239	1188.676130	-233.467053	565.231891	1080.676974	-6.031072	646.963081	865.309336	-20.819086	512.949133	986.759888	-517.934860	648.846849	887.582304	-377.278363	23.414904	1145.937658	-321.201730	211.990859	1082.129355	-420.936512	175.217102	1162.632920	-158.516760	209.537941	997.160516	-371.208154	154.886999	1092.408798	-141.167768	65.982919	1210.793007	-272.723988	96.904814	1175.232930	-376.137350	40.263411	1118.106373	-101.471791	86.570794	970.550248	-454.817106	98.530823	1016.920933	-23.899291	160.337567	956.232033	-0.415870	179.488943	883.822432	38.303412	191.630182	969.049915	-17.559522	219.356027	794.924327	75.404957	206.397163	730.598236	-29.093217	101.403202	804.051831	96.061941	23.239447	761.659843	98.283837	-61.867094	761.858990	84.643161	33.651192	725.557327	90.875222	-154.254878	747.114036	71.036576	-136.456729	684.041693	16.275142	-163.168695	758.770896	0.910145	-224.102618	569.565710	141.030812	-239.024470	672.959387	138.700364	115.464562	858.077175	-452.426601	158.762969	786.822181	-426.800180	191.347512	799.512386	-414.421466	158.832370	699.865116	-408.199235	186.927659	600.025702	-376.486370	169.111451	598.630999	-266.473444	69.435762	241.439873	-368.768166	87.383485	238.461295	-290.525952	12.455156	215.156625	-331.267060	178.044613	145.211674	-390.435995	129.085657	488.553557	-410.850356	137.020782	403.780682	-392.533077	100.152609	322.399458	-389.578266	161.638243	403.527976	-363.315390	262.031674	162.473068	-330.459051	-204.431834	832.776820	-224.770389	-78.134248	81.771855	-423.526669	-102.728755	80.578136	-24.530087	
1752	8.7600	538.023718	1333.781549	-113.939624	584.701584	1247.805480	-423.302891	550.101936	1327.751244	-272.674554	541.189163	1188.416663	-234.154977	565.035957	1080.588219	-6.625373	647.171071	865.456565	-20.641034	513.114538	986.402023	-518.452007	648.813194	887.511910	-377.497168	23.102667	1145.939823	-321.992746	211.465522	1081.791700	-421.379532	174.835316	1163.105888	-159.220098	209.015248	996.993491	-371.404511	154.392197	1092.871563	-141.678703	65.419054	1210.716501	-273.079645	96.338104	1174.681729	-376.496471	39.670545	1118.687906	-102.184409	86.107082	970.437857	-454.993169	97.668097	1017.560035	-24.259589	159.305038	956.861274	-0.443224	178.386915	884.461017	38.446749	190.673175	969.581589	-17.625208	218.165166	795.611140	75.938744	205.129045	731.049479	-28.389912	100.268554	804.962173	96.711761	22.068160	762.573847	99.071058	-63.105140	763.025401	85.530251	32.377900	726.402111	91.627967	-155.470461	748.416830	71.795572	-137.846773	685.122409	17.352415	-164.867598	759.735115	1.655300	-224.747390	571.147486	143.126727	-239.692233	674.525237	140.419558	114.932209	858.040447	-452.672096	158.304484	786.765758	-427.021262	190.899290	799.513629	-414.636540	158.454804	699.835192	-408.396774	186.578204	600.037515	-376.649808	168.507343	598.685233	-266.548563	70.175896	241.205344	-368.638871	88.085018	238.174041	-290.389837	13.220435	214.779504	-331.210176	178.930518	145.268285	-390.424693	129.254139	488.344611	-410.780374	137.431377	403.633832	-392.414632	100.855647	322.055322	-389.440745	162.021137	403.539748	-363.160130	262.892421	162.579758	-330.311296	-204.421486	832.769361	-224.754416	-78.161152	81.769162	-423.550215	-102.758766	80.545882	-24.561358	
1753	8.7650	537.653644	1333.600155	-114.642559	584.525814	1247.494844	-423.848138	549.747472	1327.444237	-273.398642	540.693508	1188.172646	-234.869164	564.871307	1080.559409	-7.219575	647.407139	865.635333	-20.406963	513.202937	986.091253	-518.937603	648.780326	887.437921	-377.749934	22.707731	1146.116842	-322.900497	211.033145	1081.437926	-421.859386	174.423267	1163.432438	-159.951221	208.495794	996.835274	-371.689776	153.901279	1093.232886	-142.136804	65.190087	1211.150799	-274.446246	95.932486	1174.458713	-377.231695	39.105470	1119.255711	-102.873608	85.593875	970.379497	-455.149725	96.865371	1018.108669	-24.562360	158.385900	957.404854	-0.508806	177.246471	885.307802	38.695480	189.789674	970.142186	-17.637411	217.024140	796.239624	76.431658	203.718035	731.414172	-27.509147	99.141640	805.742214	97.309183	20.838233	763.540872	99.713784	-64.267357	764.026844	86.231266	31.073305	727.377076	92.277248	-156.692861	749.765018	72.438372	-139.180145	686.163737	18.375268	-166.572076	760.650796	2.286769	-225.275413	572.849543	145.200800	-240.421024	676.211698	142.022851	114.440788	857.979332	-452.851694	157.859884	786.775467	-427.285966	190.453669	799.511109	-414.879662	158.059443	699.815903	-408.570728	186.289367	600.017883	-376.795940	168.061560	598.879480	-266.669254	70.814271	241.054614	-368.597430	88.726677	237.986605	-290.350578	13.916706	214.510635	-331.171547	179.703919	145.298444	-390.358551	129.393739	488.219973	-410.744465	137.801231	403.417099	-392.244422	101.480394	321.695005	-389.299410	162.399454	403.523011	-363.013400	263.650372	162.618702	-330.321938	-204.425012	832.767176	-224.771758	-78.180321	81.765102	-423.549641	-102.775479	80.542475	-24.567808	
1754	8.7700	537.235446	1333.444328	-115.418566	584.366420	1247.146407	-424.350898	549.316811	1327.153647	-274.140315	540.297899	1187.912064	-235.485452	564.765776	1080.516879	-7.836597	647.666272	865.840527	-20.124841	513.251813	985.773719	-519.495637	648.734685	887.393967	-378.036166	22.361162	1146.140465	-323.520087	210.591199	1081.206418	-422.313130	173.814470	1163.670456	-160.777926	207.928393	996.688592	-371.905230	153.541147	1093.717372	-142.476767	64.883322	1211.201229	-275.346398	95.526664	1174.332999	-377.903472	38.561233	1119.826088	-103.549499	85.025349	970.351298	-455.294307	96.053971	1018.926438	-24.852894	157.441343	958.067155	-0.561040	176.239341	885.844600	38.863139	188.884104	970.638860	-17.733423	215.860020	796.925872	76.903100	202.498200	731.625749	-26.666801	98.040509	806.536689	97.929696	19.618357	764.461324	100.361487	-65.520850	765.112687	86.956207	29.848551	728.219360	92.972656	-157.885613	750.976507	72.947754	-140.457541	687.165214	19.344373	-168.222241	761.522094	2.788904	-225.839674	574.387851	147.118937	-241.074827	677.636372	143.465444	113.939525	857.905841	-453.062888	157.407856	786.734579	-427.506361	190.024024	799.463584	-415.100504	157.578820	699.757665	-408.694597	186.073446	599.979526	-376.949144	167.468057	598.796511	-266.754727	71.352514	240.869086	-368.593565	89.298966	237.953000	-290.348706	14.499725	214.306699	-331.092150	180.386508	145.324695	-390.317537	129.522796	488.051722	-410.720408	138.133235	403.192965	-392.115010	102.014705	321.501895	-389.134296	162.686209	403.426548	-362.897777	264.292934	162.741681	-330.264947	-204.422012	832.764630	-224.738607	-78.166028	81.795851	-423.580360	-102.812176	80.548801	-24.606114	
1755	8.7750	536.785905	1333.210159	-116.237504	584.215055	1246.795071	-424.846894	548.925763	1326.871493	-274.896320	539.719617	1187.656493	-236.273667	564.732083	1080.473997	-8.469449	647.943460	866.067032	-19.802636	513.277191	985.429488	-520.097029	648.681596	887.399483	-378.268502	21.865709	1146.221523	-324.133039	209.985351	1080.921472	-422.771254	173.314537	1164.046276	-161.447517	207.410665	996.560718	-372.192778	152.945899	1094.008560	-143.113160	64.373103	1211.297980	-276.125779	95.102992	1174.239136	-378.525366	38.030194	1120.369076	-104.173371	84.366536	970.408505	-455.518018	95.130767	1019.408238	-25.158259	156.558538	958.698383	-0.609483	175.220622	886.572889	38.986280	188.038410	971.116076	-17.766912	214.770485	797.472073	77.341713	201.228803	732.135773	-25.768886	97.085400	807.144191	98.502577	18.521146	765.296510	100.989050	-66.630215	766.008754	87.607536	28.644216	729.111169	93.647036	-159.039726	752.133573	73.457688	-141.679657	688.126374	20.260401	-169.805671	762.342746	3.278564	-226.337620	575.965049	149.040272	-241.637992	679.141461	144.863321	113.402539	857.841068	-453.257666	156.975543	786.683482	-427.702802	189.595400	799.463445	-415.333147	157.194170	699.740551	-408.879528	185.893161	599.907440	-377.133062	167.277184	598.853543	-266.663733	71.906251	240.780491	-368.571053	89.862764	237.867996	-290.328368	15.017223	214.161587	-331.033677	180.909075	145.335782	-390.259113	129.716178	487.872582	-410.719398	138.415793	403.034216	-392.015828	102.444845	321.327025	-389.009956	162.908190	403.322761	-362.716023	264.835477	162.782522	-330.281466	-204.429746	832.773615	-224.753726	-78.195674	81.787232	-423.597279	-102.828166	80.513992	-24.623928	
